<?xml version="1.0" encoding="utf-8"?>
<svg width="50px" height="50px" viewBox="0 0 50 50" version="1.1" xmlns:xlink="http://www.w3.org/1999/xlink" xmlns="http://www.w3.org/2000/svg">
  <defs>
    <path d="M0 0L50 0L50 50L0 50L0 0Z" id="path_1" />
    <clipPath id="mask_1">
      <use xlink:href="#path_1" />
    </clipPath>
  </defs>
  <g id="Instagram-icon">
    <path d="M0 0L50 0L50 50L0 50L0 0Z" id="Background" fill="none" fill-rule="evenodd" stroke="none" />
    <g clip-path="url(#mask_1)">
      <path d="M16.6634 5C10.2317 5 5 10.2366 5 16.6699L5 33.3366C5 39.7683 10.2366 45 16.6699 45L33.3366 45C39.7683 45 45 39.7634 45 33.3301L45 16.6634C45 10.2317 39.7634 5 33.3301 5L16.6634 5L16.6634 5ZM36.6667 11.6665C37.5867 11.6665 38.3333 12.4132 38.3333 13.3332C38.3333 14.2532 37.5867 14.9998 36.6667 14.9998C35.7467 14.9998 35 14.2532 35 13.3332C35 12.4132 35.7467 11.6665 36.6667 11.6665L36.6667 11.6665ZM25 15C30.515 15 35 19.485 35 25C35 30.515 30.515 35 25 35C19.485 35 15 30.515 15 25C15 19.485 19.485 15 25 15L25 15ZM25 18.3335C21.3181 18.3335 18.3333 21.3183 18.3333 25.0002C18.3333 28.6821 21.3181 31.6668 25 31.6668C28.6819 31.6668 31.6667 28.6821 31.6667 25.0002C31.6667 21.3183 28.6819 18.3335 25 18.3335L25 18.3335Z" id="Shape" fill="#FFFFFF" fill-rule="evenodd" stroke="none" />
    </g>
  </g>
</svg>